# xmcd CD database file
#
# Track frame offsets:
#	182
#	9090
#	35302
#	61327
#	85390
#	105402
#	137690
#	177815
#	188002
#	211502
#	235702
#	263477
#	283940
#	302015
#	314390
#
# Disc length: 4372 seconds
#
# Revision: 0
# Processed by: cddbd v1.5.1PL0 Copyright (c) Steve Scherf et al.
# Submitted via: CDex 1.51
#
DISCID=b611120f
DTITLE=Lee Konitz-Stefano Battaglia - Parlami D'amore Mariu (Italian Ballads v.1)
DYEAR=1993
DGENRE=Jazz
TTITLE0=Prologue
TTITLE1=Le Tue Mani
TTITLE2=Io E Te Da Soli
TTITLE3=Parlami D'amore
TTITLE4=O Sole Mio
TTITLE5=Tornerai
TTITLE6=Mi Sono Innamorato Di Te
TTITLE7=Ti Voglio Tanto Bene
TTITLE8=Ma L'amore No
TTITLE9=Il Poeta
TTITLE10=MAI
TTITLE11=Non Dimenticar
TTITLE12=Il Tuo Amore
TTITLE13=Epilogue
TTITLE14=Arrivederci
EXTD=YEAR: 1993
EXTT0=
EXTT1=
EXTT2=
EXTT3=
EXTT4=
EXTT5=
EXTT6=
EXTT7=
EXTT8=
EXTT9=
EXTT10=
EXTT11=
EXTT12=
EXTT13=
EXTT14=
PLAYORDER=
